<?xml version="1.0" encoding="UTF-8" standalone="no"?>
<!-- Created with Inkscape (http://www.inkscape.org/) -->

<svg
   xmlns:svg="http://www.w3.org/2000/svg"
   xmlns="http://www.w3.org/2000/svg"
   version="1.1"
   width="48"
   height="48"
   id="svg2">
  <defs
     id="defs4" />
  <g
     transform="translate(0,-1004.3622)"
     id="layer1">
    <path
       d="M 4.1386619,1048.8082 C 3.1966246,1046.9754 2.897213,1011.701 3.7941167,1008.2164 l 0.5130892,-1.9935 20.2321841,0 c 16.303894,0 20.318671,0.2347 20.677639,1.2087 0.630006,1.7093 0.694312,39.9977 0.07003,41.6917 -0.431509,1.1708 -2.245041,1.3986 -11.131853,1.3986 l -10.616365,0 0.153168,-7.7523 c 0.08424,-4.2638 0.116059,-13.8324 0.07071,-21.2635 l -0.08246,-13.5112 -9.360299,0 -9.3602975,0 0,20.3776 0,20.3774 3.8292128,0 3.8292117,0 0,-7.0878 0,-7.0878 5.504374,0 c 4.444398,0 5.971761,0.1567 5.591631,1.1881 -0.316966,0.8599 -1.908923,1.2466 -3.722344,0.9993 -4.973697,-0.6783 -5.671788,0.032 -5.671788,5.7736 0,7.4855 -0.324206,7.9866 -5.1667132,7.9866 -3.2159781,0 -4.3292663,-0.3804 -5.0145849,-1.7137 z m 39.9640761,-12.905 0.08929,-13.0253 -6.896775,-0.2678 c -5.251241,-0.3216 -5.510028,-0.3952 -6.18249,-0.7932 -0.919324,-0.5442 0.811496,-0.9052 5.951377,-1.2397 3.685402,-0.2399 6.914511,0.014 7.109511,-0.1872 0.195009,-0.2012 0.226153,-3.3492 0.06918,-6.559 l -0.285338,-5.8361 -9.310441,0 -9.310442,0 0.235487,13.0682 0.235481,13.0682 6.594755,0.2587 c 8.707715,0.3417 8.532134,1.9562 -0.212735,1.9562 l -6.80749,0 0,6.2019 0,6.2018 9.360299,0 9.360298,0 0,-12.8467 3.7e-5,0 z m -33.186532,-14.1756 c 0,-1.0041 1.040031,-1.329 4.254682,-1.329 3.214649,0 4.254681,0.3249 4.254681,1.329 0,1.0041 -1.040032,1.3289 -4.254681,1.3289 -3.214651,0 -4.254682,-0.3248 -4.254682,-1.3289 z"
       id="path2911"
       style="fill:#000000" />
  </g>
</svg>
